# xmcd CD database file
#
# Track frame offsets:
#	150
#	15026
#	32741
#	44569
#	57700
#	75654
#	91524
#	112917
#	128823
#	147359
#	166533
#	177947
#	196586
#	212379
#
# Disc length: 3004 seconds
#
# Revision: 2
# Processed by: cddbd v1.5.2PL0 Copyright (c) Steve Scherf et al.
# Submitted via: CDex 1.70beta2
#
DISCID=a30bba0e
DTITLE=Cynthia Gayneau - Blue Highway
DYEAR=1996
DGENRE=Country
TTITLE0=My Blueridge Baby
TTITLE1=Blue Highway
TTITLE2=Mr. Jazzman
TTITLE3=Texas Yodel Song
TTITLE4=What You Really Mean
TTITLE5=Long Distance Man
TTITLE6=Lovers In Another Lifetime
TTITLE7=The Teardrop Special
TTITLE8=The Way You Call Me Baby
TTITLE9=Honky Tonk Star
TTITLE10=I've Gotta Go
TTITLE11=The Dreamer's Waltz
TTITLE12=If I'd Been Told
TTITLE13=Papa Used To Sing
EXTD=YEAR: 1996
EXTT0=Cynthia Gayneau
EXTT1=Cynthia Gayneau
EXTT2=Cynthia Gayneau
EXTT3=Cynthia Gayneau
EXTT4=Cynthia Gayneau
EXTT5=Cynthia Gayneau
EXTT6=Cynthia Gayneau
EXTT7=Cynthia Gayneau
EXTT8=Cynthia Gayneau
EXTT9=Cynthia Gayneau
EXTT10=Cynthia Gayneau
EXTT11=Cynthia Gayneau
EXTT12=Cynthia Gayneau
EXTT13=Cynthia Gayneau
PLAYORDER=
